{
    "asset" : {
        "generator" : "Khronos glTF Blender I/O v1.8.19",
        "version" : "2.0"
    },
    "scene" : 0,
    "scenes" : [
        {
            "name" : "Scene",
            "nodes" : [
                12
            ]
        }
    ],
    "nodes" : [
        {
            "name" : "mixamorig:LeftToe_End",
            "rotation" : [
                1.4901166522918174e-08,
                -6.814661901444197e-07,
                -3.702006878825159e-08,
                1
            ],
            "scale" : [
                1.0000003576278687,
                1,
                0.9999999403953552
            ],
            "translation" : [
                9.313199598182109e-07,
                7.607506275177002,
                5.9604531088552903e-08
            ]
        },
        {
            "children" : [
                0
            ],
            "name" : "mixamorig:LeftToeBase",
            "rotation" : [
                0.2983285188674927,
                -0.11714188009500504,
                0.03692135959863663,
                0.9465277194976807
            ],
            "scale" : [
                1,
                1.0000001192092896,
                1
            ],
            "translation" : [
                -4.235704977872956e-07,
                19.978843688964844,
                -4.4654797193288687e-07
            ]
        },
        {
            "children" : [
                1
            ],
            "name" : "mixamorig:LeftFoot",
            "rotation" : [
                0.5114505887031555,
                0.01646912656724453,
                -0.009804806672036648,
                0.8590989112854004
            ],
            "scale" : [
                0.9999998807907104,
                0.9999997019767761,
                0.9999998807907104
            ],
            "translation" : [
                7.255956688823062e-07,
                43.71958541870117,
                -2.3646647662189935e-07
            ]
        },
        {
            "children" : [
                2
            ],
            "name" : "mixamorig:LeftLeg",
            "rotation" : [
                -0.03769643232226372,
                0.00020018217037431896,
                -0.0053367516957223415,
                0.9992750287055969
            ],
            "scale" : [
                1.0000001192092896,
                1.000000238418579,
                1.000000238418579
            ],
            "translation" : [
                1.0177359399676789e-06,
                42.986846923828125,
                1.6347241853509331e-06
            ]
        },
        {
            "children" : [
                3
            ],
            "name" : "mixamorig:LeftUpLeg",
            "rotation" : [
                0.0019448219100013375,
                0.0317024402320385,
                -0.9976178407669067,
                0.06123571842908859
            ],
            "scale" : [
                0.9999932646751404,
                0.9999997615814209,
                0.9999980926513672
            ],
            "translation" : [
                11.110623359680176,
                -5.291862487792969,
                -0.7262754440307617
            ]
        },
        {
            "name" : "mixamorig:RightToe_End",
            "rotation" : [
                -1.303851249190302e-08,
                -1.2392993085086346e-06,
                1.047713804602779e-09,
                1
            ],
            "scale" : [
                0.9999998807907104,
                0.9999999403953552,
                1
            ],
            "translation" : [
                -1.9930280359403696e-06,
                7.570732116699219,
                5.364275352803816e-07
            ]
        },
        {
            "children" : [
                5
            ],
            "name" : "mixamorig:RightToeBase",
            "rotation" : [
                0.304644376039505,
                0.11630002409219742,
                -0.0374918058514595,
                0.944595456123352
            ],
            "scale" : [
                0.9999997019767761,
                0.9999998807907104,
                0.9999999403953552
            ],
            "translation" : [
                -1.965661795111373e-06,
                19.625667572021484,
                5.630233772535576e-07
            ]
        },
        {
            "children" : [
                6
            ],
            "name" : "mixamorig:RightFoot",
            "rotation" : [
                0.5017843246459961,
                -0.01737496815621853,
                0.010081798769533634,
                0.8647595047950745
            ],
            "scale" : [
                0.9999999403953552,
                0.9999999403953552,
                1
            ],
            "translation" : [
                -2.7078124276158633e-06,
                43.666236877441406,
                -6.281042601585796e-07
            ]
        },
        {
            "children" : [
                7
            ],
            "name" : "mixamorig:RightLeg",
            "rotation" : [
                -0.03509083762764931,
                -0.0001888787082862109,
                0.005304630380123854,
                0.9993700385093689
            ],
            "scale" : [
                0.9999998807907104,
                0.9999997615814209,
                1
            ],
            "translation" : [
                -2.2719884782418376e-06,
                42.9765510559082,
                -5.418553428171435e-07
            ]
        },
        {
            "children" : [
                8
            ],
            "name" : "mixamorig:RightUpLeg",
            "rotation" : [
                0.0018268224084749818,
                -0.029736094176769257,
                0.9976775646209717,
                0.06125330924987793
            ],
            "scale" : [
                1.0000101327896118,
                1,
                1.000002384185791
            ],
            "translation" : [
                -11.110624313354492,
                -5.2918548583984375,
                -0.8777332305908203
            ]
        },
        {
            "children" : [
                4,
                9
            ],
            "name" : "mixamorig:Hips",
            "rotation" : [
                -0.7071068286895752,
                0,
                0,
                0.7071068286895752
            ],
            "translation" : [
                0,
                10.357460975646973,
                -102.56652069091797
            ]
        },
        {
            "mesh" : 0,
            "name" : "sm_avian_boot_feet",
            "skin" : 0
        },
        {
            "children" : [
                11,
                10
            ],
            "name" : "Armature",
            "rotation" : [
                0.7071068286895752,
                0,
                0,
                0.7071067094802856
            ],
            "scale" : [
                0.009999999776482582,
                0.009999999776482582,
                0.009999999776482582
            ]
        }
    ],
    "materials" : [
        {
            "doubleSided" : true,
            "name" : "Material #29.001",
            "pbrMetallicRoughness" : {
                "baseColorTexture" : {
                    "index" : 0
                },
                "metallicFactor" : 0,
                "roughnessFactor" : 0.5527864098548889
            }
        }
    ],
    "meshes" : [
        {
            "name" : "Mesh.003",
            "primitives" : [
                {
                    "attributes" : {
                        "POSITION" : 0,
                        "NORMAL" : 1,
                        "TEXCOORD_0" : 2,
                        "JOINTS_0" : 3,
                        "WEIGHTS_0" : 4
                    },
                    "indices" : 5,
                    "material" : 0
                }
            ]
        }
    ],
    "textures" : [
        {
            "sampler" : 0,
            "source" : 0
        }
    ],
    "images" : [
        {
            "mimeType" : "image/png",
            "name" : "t_avian_boot_02_d",
            "uri" : "t_avian_boot_02_d.png"
        }
    ],
    "skins" : [
        {
            "inverseBindMatrices" : 6,
            "joints" : [
                10,
                4,
                3,
                2,
                1,
                0,
                9,
                8,
                7,
                6,
                5
            ],
            "name" : "Armature"
        }
    ],
    "accessors" : [
        {
            "bufferView" : 0,
            "componentType" : 5126,
            "count" : 2412,
            "max" : [
                0.3287643790245056,
                0.19032831490039825,
                0.2472129762172699
            ],
            "min" : [
                -0.3287467062473297,
                -0.008528824895620346,
                -0.06721562892198563
            ],
            "type" : "VEC3"
        },
        {
            "bufferView" : 1,
            "componentType" : 5126,
            "count" : 2412,
            "type" : "VEC3"
        },
        {
            "bufferView" : 2,
            "componentType" : 5126,
            "count" : 2412,
            "type" : "VEC2"
        },
        {
            "bufferView" : 3,
            "componentType" : 5121,
            "count" : 2412,
            "type" : "VEC4"
        },
        {
            "bufferView" : 4,
            "componentType" : 5126,
            "count" : 2412,
            "type" : "VEC4"
        },
        {
            "bufferView" : 5,
            "componentType" : 5123,
            "count" : 13296,
            "type" : "SCALAR"
        },
        {
            "bufferView" : 6,
            "componentType" : 5126,
            "count" : 11,
            "type" : "MAT4"
        }
    ],
    "bufferViews" : [
        {
            "buffer" : 0,
            "byteLength" : 28944,
            "byteOffset" : 0
        },
        {
            "buffer" : 0,
            "byteLength" : 28944,
            "byteOffset" : 28944
        },
        {
            "buffer" : 0,
            "byteLength" : 19296,
            "byteOffset" : 57888
        },
        {
            "buffer" : 0,
            "byteLength" : 9648,
            "byteOffset" : 77184
        },
        {
            "buffer" : 0,
            "byteLength" : 38592,
            "byteOffset" : 86832
        },
        {
            "buffer" : 0,
            "byteLength" : 26592,
            "byteOffset" : 125424
        },
        {
            "buffer" : 0,
            "byteLength" : 704,
            "byteOffset" : 152016
        }
    ],
    "samplers" : [
        {
            "magFilter" : 9729,
            "minFilter" : 9987
        }
    ],
    "buffers" : [
        {
            "byteLength" : 152720,
            "uri" : "sm_avian_boots.bin"
        }
    ]
}
