{
    "asset" : {
        "generator" : "Khronos glTF Blender I/O v1.8.19",
        "version" : "2.0"
    },
    "scene" : 0,
    "scenes" : [
        {
            "name" : "Scene",
            "nodes" : [
                0
            ]
        }
    ],
    "nodes" : [
        {
            "mesh" : 0,
            "name" : "sm_armor_human_void_foot_up_d",
            "rotation" : [
                0.7071068286895752,
                0,
                0,
                0.7071067094802856
            ],
            "scale" : [
                0.009999999776482582,
                0.009999999776482582,
                0.009999999776482582
            ],
            "translation" : [
                0.17707784473896027,
                -0.2822253108024597,
                -0.06330506503582001
            ]
        }
    ],
    "materials" : [
        {
            "doubleSided" : true,
            "name" : "Material #89.001",
            "pbrMetallicRoughness" : {
                "baseColorTexture" : {
                    "index" : 0
                },
                "metallicFactor" : 0,
                "roughnessFactor" : 0.5527864098548889
            }
        }
    ],
    "meshes" : [
        {
            "name" : "Mesh.025",
            "primitives" : [
                {
                    "attributes" : {
                        "POSITION" : 0,
                        "NORMAL" : 1,
                        "TEXCOORD_0" : 2,
                        "TEXCOORD_1" : 3
                    },
                    "indices" : 4,
                    "material" : 0
                }
            ]
        }
    ],
    "textures" : [
        {
            "sampler" : 0,
            "source" : 0
        }
    ],
    "images" : [
        {
            "mimeType" : "image/png",
            "name" : "t_armor_human_void_foot_up",
            "uri" : "t_armor_human_void_foot_up.png"
        }
    ],
    "accessors" : [
        {
            "bufferView" : 0,
            "componentType" : 5126,
            "count" : 1662,
            "max" : [
                -5.67091178894043,
                21.414352416992188,
                0.6506333947181702
            ],
            "min" : [
                -29.744657516479492,
                -8.753339767456055,
                -57.095699310302734
            ],
            "type" : "VEC3"
        },
        {
            "bufferView" : 1,
            "componentType" : 5126,
            "count" : 1662,
            "type" : "VEC3"
        },
        {
            "bufferView" : 2,
            "componentType" : 5126,
            "count" : 1662,
            "type" : "VEC2"
        },
        {
            "bufferView" : 3,
            "componentType" : 5126,
            "count" : 1662,
            "type" : "VEC2"
        },
        {
            "bufferView" : 4,
            "componentType" : 5123,
            "count" : 7098,
            "type" : "SCALAR"
        }
    ],
    "bufferViews" : [
        {
            "buffer" : 0,
            "byteLength" : 19944,
            "byteOffset" : 0
        },
        {
            "buffer" : 0,
            "byteLength" : 19944,
            "byteOffset" : 19944
        },
        {
            "buffer" : 0,
            "byteLength" : 13296,
            "byteOffset" : 39888
        },
        {
            "buffer" : 0,
            "byteLength" : 13296,
            "byteOffset" : 53184
        },
        {
            "buffer" : 0,
            "byteLength" : 14196,
            "byteOffset" : 66480
        }
    ],
    "samplers" : [
        {
            "magFilter" : 9729,
            "minFilter" : 9987
        }
    ],
    "buffers" : [
        {
            "byteLength" : 80676,
            "uri" : "sm_armor_human_void_foot_up_r.bin"
        }
    ]
}
